<?xml version="1.0" encoding="UTF-8" standalone="no"?>
<!-- Created with PhysiCell (http://PhysiCell.MathCancer.org/) -->
<svg 
 xmlns:dc="http://purl.org/dc/elements/1.1/" 
 xmlns:cc="http://creativecommons.org/ns#" 
 xmlns:rdf="http://www.w3.org/1999/02/22-rdf-syntax-ns#" 
 xmlns:svg="http://www.w3.org/2000/svg" 
 xmlns="http://www.w3.org/2000/svg" 
 version="1.1" 
 width="500" 
 height="535" 
 id="svg2">
  <rect x="0" y="0" width="500" height="535" stroke-width="1" stroke="white" fill="white"/>
  <text x="6.25" y="15"
   font-family="Arial" font-size="12.5" fill="black" >
   Current time: 0 days, 0 hours, and 0.00 minutes, z = 0.00 &#956;m
  </text>
  <text x="6.25" y="28.75"
   font-family="Arial" font-size="11.875" fill="black" >
   147 agents
  </text>
 <g id="tissue" 
    transform="translate(0,535) scale(1,-1)">
  <g id="ECM">
  </g>
  <g id="cells">
   <g id="cell0">
  <circle cx="10" cy="20" r="8.41271" stroke-width="0.5" stroke="rgb(0,0,0)" fill="black"/>
  <circle cx="10" cy="20" r="5.05167" stroke-width="0.5" stroke="rgb(0,0,0)" fill="black"/>
   </g>
   <g id="cell1">
  <circle cx="20" cy="20" r="8.41271" stroke-width="0.5" stroke="rgb(0,0,0)" fill="black"/>
  <circle cx="20" cy="20" r="5.05167" stroke-width="0.5" stroke="rgb(0,0,0)" fill="black"/>
   </g>
   <g id="cell2">
  <circle cx="30" cy="20" r="8.41271" stroke-width="0.5" stroke="rgb(0,0,0)" fill="black"/>
  <circle cx="30" cy="20" r="5.05167" stroke-width="0.5" stroke="rgb(0,0,0)" fill="black"/>
   </g>
   <g id="cell3">
  <circle cx="40" cy="20" r="8.41271" stroke-width="0.5" stroke="rgb(0,0,0)" fill="black"/>
  <circle cx="40" cy="20" r="5.05167" stroke-width="0.5" stroke="rgb(0,0,0)" fill="black"/>
   </g>
   <g id="cell4">
  <circle cx="50" cy="20" r="8.41271" stroke-width="0.5" stroke="rgb(0,0,0)" fill="black"/>
  <circle cx="50" cy="20" r="5.05167" stroke-width="0.5" stroke="rgb(0,0,0)" fill="black"/>
   </g>
   <g id="cell5">
  <circle cx="60" cy="20" r="8.41271" stroke-width="0.5" stroke="rgb(0,0,0)" fill="black"/>
  <circle cx="60" cy="20" r="5.05167" stroke-width="0.5" stroke="rgb(0,0,0)" fill="black"/>
   </g>
   <g id="cell6">
  <circle cx="70" cy="20" r="8.41271" stroke-width="0.5" stroke="rgb(0,0,0)" fill="black"/>
  <circle cx="70" cy="20" r="5.05167" stroke-width="0.5" stroke="rgb(0,0,0)" fill="black"/>
   </g>
   <g id="cell7">
  <circle cx="80" cy="20" r="8.41271" stroke-width="0.5" stroke="rgb(0,0,0)" fill="black"/>
  <circle cx="80" cy="20" r="5.05167" stroke-width="0.5" stroke="rgb(0,0,0)" fill="black"/>
   </g>
   <g id="cell8">
  <circle cx="90" cy="20" r="8.41271" stroke-width="0.5" stroke="rgb(0,0,0)" fill="black"/>
  <circle cx="90" cy="20" r="5.05167" stroke-width="0.5" stroke="rgb(0,0,0)" fill="black"/>
   </g>
   <g id="cell9">
  <circle cx="100" cy="20" r="8.41271" stroke-width="0.5" stroke="rgb(0,0,0)" fill="black"/>
  <circle cx="100" cy="20" r="5.05167" stroke-width="0.5" stroke="rgb(0,0,0)" fill="black"/>
   </g>
   <g id="cell10">
  <circle cx="110" cy="20" r="8.41271" stroke-width="0.5" stroke="rgb(0,0,0)" fill="black"/>
  <circle cx="110" cy="20" r="5.05167" stroke-width="0.5" stroke="rgb(0,0,0)" fill="black"/>
   </g>
   <g id="cell11">
  <circle cx="120" cy="20" r="8.41271" stroke-width="0.5" stroke="rgb(0,0,0)" fill="black"/>
  <circle cx="120" cy="20" r="5.05167" stroke-width="0.5" stroke="rgb(0,0,0)" fill="black"/>
   </g>
   <g id="cell12">
  <circle cx="130" cy="20" r="8.41271" stroke-width="0.5" stroke="rgb(0,0,0)" fill="black"/>
  <circle cx="130" cy="20" r="5.05167" stroke-width="0.5" stroke="rgb(0,0,0)" fill="black"/>
   </g>
   <g id="cell13">
  <circle cx="140" cy="20" r="8.41271" stroke-width="0.5" stroke="rgb(0,0,0)" fill="black"/>
  <circle cx="140" cy="20" r="5.05167" stroke-width="0.5" stroke="rgb(0,0,0)" fill="black"/>
   </g>
   <g id="cell14">
  <circle cx="150" cy="20" r="8.41271" stroke-width="0.5" stroke="rgb(0,0,0)" fill="black"/>
  <circle cx="150" cy="20" r="5.05167" stroke-width="0.5" stroke="rgb(0,0,0)" fill="black"/>
   </g>
   <g id="cell15">
  <circle cx="160" cy="20" r="8.41271" stroke-width="0.5" stroke="rgb(0,0,0)" fill="black"/>
  <circle cx="160" cy="20" r="5.05167" stroke-width="0.5" stroke="rgb(0,0,0)" fill="black"/>
   </g>
   <g id="cell16">
  <circle cx="170" cy="20" r="8.41271" stroke-width="0.5" stroke="rgb(0,0,0)" fill="black"/>
  <circle cx="170" cy="20" r="5.05167" stroke-width="0.5" stroke="rgb(0,0,0)" fill="black"/>
   </g>
   <g id="cell17">
  <circle cx="180" cy="20" r="8.41271" stroke-width="0.5" stroke="rgb(0,0,0)" fill="black"/>
  <circle cx="180" cy="20" r="5.05167" stroke-width="0.5" stroke="rgb(0,0,0)" fill="black"/>
   </g>
   <g id="cell18">
  <circle cx="190" cy="20" r="8.41271" stroke-width="0.5" stroke="rgb(0,0,0)" fill="black"/>
  <circle cx="190" cy="20" r="5.05167" stroke-width="0.5" stroke="rgb(0,0,0)" fill="black"/>
   </g>
   <g id="cell19">
  <circle cx="200" cy="20" r="8.41271" stroke-width="0.5" stroke="rgb(0,0,0)" fill="black"/>
  <circle cx="200" cy="20" r="5.05167" stroke-width="0.5" stroke="rgb(0,0,0)" fill="black"/>
   </g>
   <g id="cell20">
  <circle cx="210" cy="20" r="8.41271" stroke-width="0.5" stroke="rgb(0,0,0)" fill="black"/>
  <circle cx="210" cy="20" r="5.05167" stroke-width="0.5" stroke="rgb(0,0,0)" fill="black"/>
   </g>
   <g id="cell21">
  <circle cx="220" cy="20" r="8.41271" stroke-width="0.5" stroke="rgb(0,0,0)" fill="black"/>
  <circle cx="220" cy="20" r="5.05167" stroke-width="0.5" stroke="rgb(0,0,0)" fill="black"/>
   </g>
   <g id="cell22">
  <circle cx="230" cy="20" r="8.41271" stroke-width="0.5" stroke="rgb(0,0,0)" fill="black"/>
  <circle cx="230" cy="20" r="5.05167" stroke-width="0.5" stroke="rgb(0,0,0)" fill="black"/>
   </g>
   <g id="cell23">
  <circle cx="240" cy="20" r="8.41271" stroke-width="0.5" stroke="rgb(0,0,0)" fill="black"/>
  <circle cx="240" cy="20" r="5.05167" stroke-width="0.5" stroke="rgb(0,0,0)" fill="black"/>
   </g>
   <g id="cell24">
  <circle cx="250" cy="20" r="8.41271" stroke-width="0.5" stroke="rgb(0,0,0)" fill="black"/>
  <circle cx="250" cy="20" r="5.05167" stroke-width="0.5" stroke="rgb(0,0,0)" fill="black"/>
   </g>
   <g id="cell25">
  <circle cx="260" cy="20" r="8.41271" stroke-width="0.5" stroke="rgb(0,0,0)" fill="black"/>
  <circle cx="260" cy="20" r="5.05167" stroke-width="0.5" stroke="rgb(0,0,0)" fill="black"/>
   </g>
   <g id="cell26">
  <circle cx="270" cy="20" r="8.41271" stroke-width="0.5" stroke="rgb(0,0,0)" fill="black"/>
  <circle cx="270" cy="20" r="5.05167" stroke-width="0.5" stroke="rgb(0,0,0)" fill="black"/>
   </g>
   <g id="cell27">
  <circle cx="280" cy="20" r="8.41271" stroke-width="0.5" stroke="rgb(0,0,0)" fill="black"/>
  <circle cx="280" cy="20" r="5.05167" stroke-width="0.5" stroke="rgb(0,0,0)" fill="black"/>
   </g>
   <g id="cell28">
  <circle cx="290" cy="20" r="8.41271" stroke-width="0.5" stroke="rgb(0,0,0)" fill="black"/>
  <circle cx="290" cy="20" r="5.05167" stroke-width="0.5" stroke="rgb(0,0,0)" fill="black"/>
   </g>
   <g id="cell29">
  <circle cx="300" cy="20" r="8.41271" stroke-width="0.5" stroke="rgb(0,0,0)" fill="black"/>
  <circle cx="300" cy="20" r="5.05167" stroke-width="0.5" stroke="rgb(0,0,0)" fill="black"/>
   </g>
   <g id="cell30">
  <circle cx="310" cy="20" r="8.41271" stroke-width="0.5" stroke="rgb(0,0,0)" fill="black"/>
  <circle cx="310" cy="20" r="5.05167" stroke-width="0.5" stroke="rgb(0,0,0)" fill="black"/>
   </g>
   <g id="cell31">
  <circle cx="320" cy="20" r="8.41271" stroke-width="0.5" stroke="rgb(0,0,0)" fill="black"/>
  <circle cx="320" cy="20" r="5.05167" stroke-width="0.5" stroke="rgb(0,0,0)" fill="black"/>
   </g>
   <g id="cell32">
  <circle cx="330" cy="20" r="8.41271" stroke-width="0.5" stroke="rgb(0,0,0)" fill="black"/>
  <circle cx="330" cy="20" r="5.05167" stroke-width="0.5" stroke="rgb(0,0,0)" fill="black"/>
   </g>
   <g id="cell33">
  <circle cx="340" cy="20" r="8.41271" stroke-width="0.5" stroke="rgb(0,0,0)" fill="black"/>
  <circle cx="340" cy="20" r="5.05167" stroke-width="0.5" stroke="rgb(0,0,0)" fill="black"/>
   </g>
   <g id="cell34">
  <circle cx="350" cy="20" r="8.41271" stroke-width="0.5" stroke="rgb(0,0,0)" fill="black"/>
  <circle cx="350" cy="20" r="5.05167" stroke-width="0.5" stroke="rgb(0,0,0)" fill="black"/>
   </g>
   <g id="cell35">
  <circle cx="360" cy="20" r="8.41271" stroke-width="0.5" stroke="rgb(0,0,0)" fill="black"/>
  <circle cx="360" cy="20" r="5.05167" stroke-width="0.5" stroke="rgb(0,0,0)" fill="black"/>
   </g>
   <g id="cell36">
  <circle cx="370" cy="20" r="8.41271" stroke-width="0.5" stroke="rgb(0,0,0)" fill="black"/>
  <circle cx="370" cy="20" r="5.05167" stroke-width="0.5" stroke="rgb(0,0,0)" fill="black"/>
   </g>
   <g id="cell37">
  <circle cx="380" cy="20" r="8.41271" stroke-width="0.5" stroke="rgb(0,0,0)" fill="black"/>
  <circle cx="380" cy="20" r="5.05167" stroke-width="0.5" stroke="rgb(0,0,0)" fill="black"/>
   </g>
   <g id="cell38">
  <circle cx="390" cy="20" r="8.41271" stroke-width="0.5" stroke="rgb(0,0,0)" fill="black"/>
  <circle cx="390" cy="20" r="5.05167" stroke-width="0.5" stroke="rgb(0,0,0)" fill="black"/>
   </g>
   <g id="cell39">
  <circle cx="400" cy="20" r="8.41271" stroke-width="0.5" stroke="rgb(0,0,0)" fill="black"/>
  <circle cx="400" cy="20" r="5.05167" stroke-width="0.5" stroke="rgb(0,0,0)" fill="black"/>
   </g>
   <g id="cell40">
  <circle cx="410" cy="20" r="8.41271" stroke-width="0.5" stroke="rgb(0,0,0)" fill="black"/>
  <circle cx="410" cy="20" r="5.05167" stroke-width="0.5" stroke="rgb(0,0,0)" fill="black"/>
   </g>
   <g id="cell41">
  <circle cx="420" cy="20" r="8.41271" stroke-width="0.5" stroke="rgb(0,0,0)" fill="black"/>
  <circle cx="420" cy="20" r="5.05167" stroke-width="0.5" stroke="rgb(0,0,0)" fill="black"/>
   </g>
   <g id="cell42">
  <circle cx="430" cy="20" r="8.41271" stroke-width="0.5" stroke="rgb(0,0,0)" fill="black"/>
  <circle cx="430" cy="20" r="5.05167" stroke-width="0.5" stroke="rgb(0,0,0)" fill="black"/>
   </g>
   <g id="cell43">
  <circle cx="440" cy="20" r="8.41271" stroke-width="0.5" stroke="rgb(0,0,0)" fill="black"/>
  <circle cx="440" cy="20" r="5.05167" stroke-width="0.5" stroke="rgb(0,0,0)" fill="black"/>
   </g>
   <g id="cell44">
  <circle cx="450" cy="20" r="8.41271" stroke-width="0.5" stroke="rgb(0,0,0)" fill="black"/>
  <circle cx="450" cy="20" r="5.05167" stroke-width="0.5" stroke="rgb(0,0,0)" fill="black"/>
   </g>
   <g id="cell45">
  <circle cx="460" cy="20" r="8.41271" stroke-width="0.5" stroke="rgb(0,0,0)" fill="black"/>
  <circle cx="460" cy="20" r="5.05167" stroke-width="0.5" stroke="rgb(0,0,0)" fill="black"/>
   </g>
   <g id="cell46">
  <circle cx="470" cy="20" r="8.41271" stroke-width="0.5" stroke="rgb(0,0,0)" fill="black"/>
  <circle cx="470" cy="20" r="5.05167" stroke-width="0.5" stroke="rgb(0,0,0)" fill="black"/>
   </g>
   <g id="cell47">
  <circle cx="480" cy="20" r="8.41271" stroke-width="0.5" stroke="rgb(0,0,0)" fill="black"/>
  <circle cx="480" cy="20" r="5.05167" stroke-width="0.5" stroke="rgb(0,0,0)" fill="black"/>
   </g>
   <g id="cell48">
  <circle cx="490" cy="20" r="8.41271" stroke-width="0.5" stroke="rgb(0,0,0)" fill="black"/>
  <circle cx="490" cy="20" r="5.05167" stroke-width="0.5" stroke="rgb(0,0,0)" fill="black"/>
   </g>
   <g id="cell49">
  <circle cx="200" cy="30" r="8.41271" stroke-width="0.5" stroke="rgb(0,0,0)" fill="red"/>
  <circle cx="200" cy="30" r="5.05167" stroke-width="0.5" stroke="rgb(0,0,0)" fill="red"/>
   </g>
   <g id="cell50">
  <circle cx="200" cy="40" r="8.41271" stroke-width="0.5" stroke="rgb(0,0,0)" fill="red"/>
  <circle cx="200" cy="40" r="5.05167" stroke-width="0.5" stroke="rgb(0,0,0)" fill="red"/>
   </g>
   <g id="cell51">
  <circle cx="200" cy="50" r="8.41271" stroke-width="0.5" stroke="rgb(0,0,0)" fill="red"/>
  <circle cx="200" cy="50" r="5.05167" stroke-width="0.5" stroke="rgb(0,0,0)" fill="red"/>
   </g>
   <g id="cell52">
  <circle cx="200" cy="60" r="8.41271" stroke-width="0.5" stroke="rgb(0,0,0)" fill="red"/>
  <circle cx="200" cy="60" r="5.05167" stroke-width="0.5" stroke="rgb(0,0,0)" fill="red"/>
   </g>
   <g id="cell53">
  <circle cx="200" cy="70" r="8.41271" stroke-width="0.5" stroke="rgb(0,0,0)" fill="blue"/>
  <circle cx="200" cy="70" r="5.05167" stroke-width="0.5" stroke="rgb(0,0,0)" fill="blue"/>
   </g>
   <g id="cell54">
  <circle cx="200" cy="80" r="8.41271" stroke-width="0.5" stroke="rgb(0,0,0)" fill="blue"/>
  <circle cx="200" cy="80" r="5.05167" stroke-width="0.5" stroke="rgb(0,0,0)" fill="blue"/>
   </g>
   <g id="cell55">
  <circle cx="200" cy="90" r="8.41271" stroke-width="0.5" stroke="rgb(0,0,0)" fill="blue"/>
  <circle cx="200" cy="90" r="5.05167" stroke-width="0.5" stroke="rgb(0,0,0)" fill="blue"/>
   </g>
   <g id="cell56">
  <circle cx="210" cy="30" r="8.41271" stroke-width="0.5" stroke="rgb(0,0,0)" fill="red"/>
  <circle cx="210" cy="30" r="5.05167" stroke-width="0.5" stroke="rgb(0,0,0)" fill="red"/>
   </g>
   <g id="cell57">
  <circle cx="210" cy="40" r="8.41271" stroke-width="0.5" stroke="rgb(0,0,0)" fill="red"/>
  <circle cx="210" cy="40" r="5.05167" stroke-width="0.5" stroke="rgb(0,0,0)" fill="red"/>
   </g>
   <g id="cell58">
  <circle cx="210" cy="50" r="8.41271" stroke-width="0.5" stroke="rgb(0,0,0)" fill="red"/>
  <circle cx="210" cy="50" r="5.05167" stroke-width="0.5" stroke="rgb(0,0,0)" fill="red"/>
   </g>
   <g id="cell59">
  <circle cx="210" cy="60" r="8.41271" stroke-width="0.5" stroke="rgb(0,0,0)" fill="red"/>
  <circle cx="210" cy="60" r="5.05167" stroke-width="0.5" stroke="rgb(0,0,0)" fill="red"/>
   </g>
   <g id="cell60">
  <circle cx="210" cy="70" r="8.41271" stroke-width="0.5" stroke="rgb(0,0,0)" fill="blue"/>
  <circle cx="210" cy="70" r="5.05167" stroke-width="0.5" stroke="rgb(0,0,0)" fill="blue"/>
   </g>
   <g id="cell61">
  <circle cx="210" cy="80" r="8.41271" stroke-width="0.5" stroke="rgb(0,0,0)" fill="blue"/>
  <circle cx="210" cy="80" r="5.05167" stroke-width="0.5" stroke="rgb(0,0,0)" fill="blue"/>
   </g>
   <g id="cell62">
  <circle cx="210" cy="90" r="8.41271" stroke-width="0.5" stroke="rgb(0,0,0)" fill="blue"/>
  <circle cx="210" cy="90" r="5.05167" stroke-width="0.5" stroke="rgb(0,0,0)" fill="blue"/>
   </g>
   <g id="cell63">
  <circle cx="220" cy="30" r="8.41271" stroke-width="0.5" stroke="rgb(0,0,0)" fill="red"/>
  <circle cx="220" cy="30" r="5.05167" stroke-width="0.5" stroke="rgb(0,0,0)" fill="red"/>
   </g>
   <g id="cell64">
  <circle cx="220" cy="40" r="8.41271" stroke-width="0.5" stroke="rgb(0,0,0)" fill="red"/>
  <circle cx="220" cy="40" r="5.05167" stroke-width="0.5" stroke="rgb(0,0,0)" fill="red"/>
   </g>
   <g id="cell65">
  <circle cx="220" cy="50" r="8.41271" stroke-width="0.5" stroke="rgb(0,0,0)" fill="red"/>
  <circle cx="220" cy="50" r="5.05167" stroke-width="0.5" stroke="rgb(0,0,0)" fill="red"/>
   </g>
   <g id="cell66">
  <circle cx="220" cy="60" r="8.41271" stroke-width="0.5" stroke="rgb(0,0,0)" fill="red"/>
  <circle cx="220" cy="60" r="5.05167" stroke-width="0.5" stroke="rgb(0,0,0)" fill="red"/>
   </g>
   <g id="cell67">
  <circle cx="220" cy="70" r="8.41271" stroke-width="0.5" stroke="rgb(0,0,0)" fill="blue"/>
  <circle cx="220" cy="70" r="5.05167" stroke-width="0.5" stroke="rgb(0,0,0)" fill="blue"/>
   </g>
   <g id="cell68">
  <circle cx="220" cy="80" r="8.41271" stroke-width="0.5" stroke="rgb(0,0,0)" fill="blue"/>
  <circle cx="220" cy="80" r="5.05167" stroke-width="0.5" stroke="rgb(0,0,0)" fill="blue"/>
   </g>
   <g id="cell69">
  <circle cx="220" cy="90" r="8.41271" stroke-width="0.5" stroke="rgb(0,0,0)" fill="blue"/>
  <circle cx="220" cy="90" r="5.05167" stroke-width="0.5" stroke="rgb(0,0,0)" fill="blue"/>
   </g>
   <g id="cell70">
  <circle cx="230" cy="30" r="8.41271" stroke-width="0.5" stroke="rgb(0,0,0)" fill="red"/>
  <circle cx="230" cy="30" r="5.05167" stroke-width="0.5" stroke="rgb(0,0,0)" fill="red"/>
   </g>
   <g id="cell71">
  <circle cx="230" cy="40" r="8.41271" stroke-width="0.5" stroke="rgb(0,0,0)" fill="red"/>
  <circle cx="230" cy="40" r="5.05167" stroke-width="0.5" stroke="rgb(0,0,0)" fill="red"/>
   </g>
   <g id="cell72">
  <circle cx="230" cy="50" r="8.41271" stroke-width="0.5" stroke="rgb(0,0,0)" fill="red"/>
  <circle cx="230" cy="50" r="5.05167" stroke-width="0.5" stroke="rgb(0,0,0)" fill="red"/>
   </g>
   <g id="cell73">
  <circle cx="230" cy="60" r="8.41271" stroke-width="0.5" stroke="rgb(0,0,0)" fill="red"/>
  <circle cx="230" cy="60" r="5.05167" stroke-width="0.5" stroke="rgb(0,0,0)" fill="red"/>
   </g>
   <g id="cell74">
  <circle cx="230" cy="70" r="8.41271" stroke-width="0.5" stroke="rgb(0,0,0)" fill="blue"/>
  <circle cx="230" cy="70" r="5.05167" stroke-width="0.5" stroke="rgb(0,0,0)" fill="blue"/>
   </g>
   <g id="cell75">
  <circle cx="230" cy="80" r="8.41271" stroke-width="0.5" stroke="rgb(0,0,0)" fill="blue"/>
  <circle cx="230" cy="80" r="5.05167" stroke-width="0.5" stroke="rgb(0,0,0)" fill="blue"/>
   </g>
   <g id="cell76">
  <circle cx="230" cy="90" r="8.41271" stroke-width="0.5" stroke="rgb(0,0,0)" fill="blue"/>
  <circle cx="230" cy="90" r="5.05167" stroke-width="0.5" stroke="rgb(0,0,0)" fill="blue"/>
   </g>
   <g id="cell77">
  <circle cx="240" cy="30" r="8.41271" stroke-width="0.5" stroke="rgb(0,0,0)" fill="red"/>
  <circle cx="240" cy="30" r="5.05167" stroke-width="0.5" stroke="rgb(0,0,0)" fill="red"/>
   </g>
   <g id="cell78">
  <circle cx="240" cy="40" r="8.41271" stroke-width="0.5" stroke="rgb(0,0,0)" fill="red"/>
  <circle cx="240" cy="40" r="5.05167" stroke-width="0.5" stroke="rgb(0,0,0)" fill="red"/>
   </g>
   <g id="cell79">
  <circle cx="240" cy="50" r="8.41271" stroke-width="0.5" stroke="rgb(0,0,0)" fill="red"/>
  <circle cx="240" cy="50" r="5.05167" stroke-width="0.5" stroke="rgb(0,0,0)" fill="red"/>
   </g>
   <g id="cell80">
  <circle cx="240" cy="60" r="8.41271" stroke-width="0.5" stroke="rgb(0,0,0)" fill="red"/>
  <circle cx="240" cy="60" r="5.05167" stroke-width="0.5" stroke="rgb(0,0,0)" fill="red"/>
   </g>
   <g id="cell81">
  <circle cx="240" cy="70" r="8.41271" stroke-width="0.5" stroke="rgb(0,0,0)" fill="blue"/>
  <circle cx="240" cy="70" r="5.05167" stroke-width="0.5" stroke="rgb(0,0,0)" fill="blue"/>
   </g>
   <g id="cell82">
  <circle cx="240" cy="80" r="8.41271" stroke-width="0.5" stroke="rgb(0,0,0)" fill="blue"/>
  <circle cx="240" cy="80" r="5.05167" stroke-width="0.5" stroke="rgb(0,0,0)" fill="blue"/>
   </g>
   <g id="cell83">
  <circle cx="240" cy="90" r="8.41271" stroke-width="0.5" stroke="rgb(0,0,0)" fill="blue"/>
  <circle cx="240" cy="90" r="5.05167" stroke-width="0.5" stroke="rgb(0,0,0)" fill="blue"/>
   </g>
   <g id="cell84">
  <circle cx="250" cy="30" r="8.41271" stroke-width="0.5" stroke="rgb(0,0,0)" fill="red"/>
  <circle cx="250" cy="30" r="5.05167" stroke-width="0.5" stroke="rgb(0,0,0)" fill="red"/>
   </g>
   <g id="cell85">
  <circle cx="250" cy="40" r="8.41271" stroke-width="0.5" stroke="rgb(0,0,0)" fill="red"/>
  <circle cx="250" cy="40" r="5.05167" stroke-width="0.5" stroke="rgb(0,0,0)" fill="red"/>
   </g>
   <g id="cell86">
  <circle cx="250" cy="50" r="8.41271" stroke-width="0.5" stroke="rgb(0,0,0)" fill="red"/>
  <circle cx="250" cy="50" r="5.05167" stroke-width="0.5" stroke="rgb(0,0,0)" fill="red"/>
   </g>
   <g id="cell87">
  <circle cx="250" cy="60" r="8.41271" stroke-width="0.5" stroke="rgb(0,0,0)" fill="red"/>
  <circle cx="250" cy="60" r="5.05167" stroke-width="0.5" stroke="rgb(0,0,0)" fill="red"/>
   </g>
   <g id="cell88">
  <circle cx="250" cy="70" r="8.41271" stroke-width="0.5" stroke="rgb(0,0,0)" fill="blue"/>
  <circle cx="250" cy="70" r="5.05167" stroke-width="0.5" stroke="rgb(0,0,0)" fill="blue"/>
   </g>
   <g id="cell89">
  <circle cx="250" cy="80" r="8.41271" stroke-width="0.5" stroke="rgb(0,0,0)" fill="blue"/>
  <circle cx="250" cy="80" r="5.05167" stroke-width="0.5" stroke="rgb(0,0,0)" fill="blue"/>
   </g>
   <g id="cell90">
  <circle cx="250" cy="90" r="8.41271" stroke-width="0.5" stroke="rgb(0,0,0)" fill="blue"/>
  <circle cx="250" cy="90" r="5.05167" stroke-width="0.5" stroke="rgb(0,0,0)" fill="blue"/>
   </g>
   <g id="cell91">
  <circle cx="260" cy="30" r="8.41271" stroke-width="0.5" stroke="rgb(0,0,0)" fill="red"/>
  <circle cx="260" cy="30" r="5.05167" stroke-width="0.5" stroke="rgb(0,0,0)" fill="red"/>
   </g>
   <g id="cell92">
  <circle cx="260" cy="40" r="8.41271" stroke-width="0.5" stroke="rgb(0,0,0)" fill="red"/>
  <circle cx="260" cy="40" r="5.05167" stroke-width="0.5" stroke="rgb(0,0,0)" fill="red"/>
   </g>
   <g id="cell93">
  <circle cx="260" cy="50" r="8.41271" stroke-width="0.5" stroke="rgb(0,0,0)" fill="red"/>
  <circle cx="260" cy="50" r="5.05167" stroke-width="0.5" stroke="rgb(0,0,0)" fill="red"/>
   </g>
   <g id="cell94">
  <circle cx="260" cy="60" r="8.41271" stroke-width="0.5" stroke="rgb(0,0,0)" fill="red"/>
  <circle cx="260" cy="60" r="5.05167" stroke-width="0.5" stroke="rgb(0,0,0)" fill="red"/>
   </g>
   <g id="cell95">
  <circle cx="260" cy="70" r="8.41271" stroke-width="0.5" stroke="rgb(0,0,0)" fill="blue"/>
  <circle cx="260" cy="70" r="5.05167" stroke-width="0.5" stroke="rgb(0,0,0)" fill="blue"/>
   </g>
   <g id="cell96">
  <circle cx="260" cy="80" r="8.41271" stroke-width="0.5" stroke="rgb(0,0,0)" fill="blue"/>
  <circle cx="260" cy="80" r="5.05167" stroke-width="0.5" stroke="rgb(0,0,0)" fill="blue"/>
   </g>
   <g id="cell97">
  <circle cx="260" cy="90" r="8.41271" stroke-width="0.5" stroke="rgb(0,0,0)" fill="blue"/>
  <circle cx="260" cy="90" r="5.05167" stroke-width="0.5" stroke="rgb(0,0,0)" fill="blue"/>
   </g>
   <g id="cell98">
  <circle cx="270" cy="30" r="8.41271" stroke-width="0.5" stroke="rgb(0,0,0)" fill="red"/>
  <circle cx="270" cy="30" r="5.05167" stroke-width="0.5" stroke="rgb(0,0,0)" fill="red"/>
   </g>
   <g id="cell99">
  <circle cx="270" cy="40" r="8.41271" stroke-width="0.5" stroke="rgb(0,0,0)" fill="red"/>
  <circle cx="270" cy="40" r="5.05167" stroke-width="0.5" stroke="rgb(0,0,0)" fill="red"/>
   </g>
   <g id="cell100">
  <circle cx="270" cy="50" r="8.41271" stroke-width="0.5" stroke="rgb(0,0,0)" fill="red"/>
  <circle cx="270" cy="50" r="5.05167" stroke-width="0.5" stroke="rgb(0,0,0)" fill="red"/>
   </g>
   <g id="cell101">
  <circle cx="270" cy="60" r="8.41271" stroke-width="0.5" stroke="rgb(0,0,0)" fill="red"/>
  <circle cx="270" cy="60" r="5.05167" stroke-width="0.5" stroke="rgb(0,0,0)" fill="red"/>
   </g>
   <g id="cell102">
  <circle cx="270" cy="70" r="8.41271" stroke-width="0.5" stroke="rgb(0,0,0)" fill="blue"/>
  <circle cx="270" cy="70" r="5.05167" stroke-width="0.5" stroke="rgb(0,0,0)" fill="blue"/>
   </g>
   <g id="cell103">
  <circle cx="270" cy="80" r="8.41271" stroke-width="0.5" stroke="rgb(0,0,0)" fill="blue"/>
  <circle cx="270" cy="80" r="5.05167" stroke-width="0.5" stroke="rgb(0,0,0)" fill="blue"/>
   </g>
   <g id="cell104">
  <circle cx="270" cy="90" r="8.41271" stroke-width="0.5" stroke="rgb(0,0,0)" fill="blue"/>
  <circle cx="270" cy="90" r="5.05167" stroke-width="0.5" stroke="rgb(0,0,0)" fill="blue"/>
   </g>
   <g id="cell105">
  <circle cx="280" cy="30" r="8.41271" stroke-width="0.5" stroke="rgb(0,0,0)" fill="red"/>
  <circle cx="280" cy="30" r="5.05167" stroke-width="0.5" stroke="rgb(0,0,0)" fill="red"/>
   </g>
   <g id="cell106">
  <circle cx="280" cy="40" r="8.41271" stroke-width="0.5" stroke="rgb(0,0,0)" fill="red"/>
  <circle cx="280" cy="40" r="5.05167" stroke-width="0.5" stroke="rgb(0,0,0)" fill="red"/>
   </g>
   <g id="cell107">
  <circle cx="280" cy="50" r="8.41271" stroke-width="0.5" stroke="rgb(0,0,0)" fill="red"/>
  <circle cx="280" cy="50" r="5.05167" stroke-width="0.5" stroke="rgb(0,0,0)" fill="red"/>
   </g>
   <g id="cell108">
  <circle cx="280" cy="60" r="8.41271" stroke-width="0.5" stroke="rgb(0,0,0)" fill="red"/>
  <circle cx="280" cy="60" r="5.05167" stroke-width="0.5" stroke="rgb(0,0,0)" fill="red"/>
   </g>
   <g id="cell109">
  <circle cx="280" cy="70" r="8.41271" stroke-width="0.5" stroke="rgb(0,0,0)" fill="blue"/>
  <circle cx="280" cy="70" r="5.05167" stroke-width="0.5" stroke="rgb(0,0,0)" fill="blue"/>
   </g>
   <g id="cell110">
  <circle cx="280" cy="80" r="8.41271" stroke-width="0.5" stroke="rgb(0,0,0)" fill="blue"/>
  <circle cx="280" cy="80" r="5.05167" stroke-width="0.5" stroke="rgb(0,0,0)" fill="blue"/>
   </g>
   <g id="cell111">
  <circle cx="280" cy="90" r="8.41271" stroke-width="0.5" stroke="rgb(0,0,0)" fill="blue"/>
  <circle cx="280" cy="90" r="5.05167" stroke-width="0.5" stroke="rgb(0,0,0)" fill="blue"/>
   </g>
   <g id="cell112">
  <circle cx="290" cy="30" r="8.41271" stroke-width="0.5" stroke="rgb(0,0,0)" fill="red"/>
  <circle cx="290" cy="30" r="5.05167" stroke-width="0.5" stroke="rgb(0,0,0)" fill="red"/>
   </g>
   <g id="cell113">
  <circle cx="290" cy="40" r="8.41271" stroke-width="0.5" stroke="rgb(0,0,0)" fill="red"/>
  <circle cx="290" cy="40" r="5.05167" stroke-width="0.5" stroke="rgb(0,0,0)" fill="red"/>
   </g>
   <g id="cell114">
  <circle cx="290" cy="50" r="8.41271" stroke-width="0.5" stroke="rgb(0,0,0)" fill="red"/>
  <circle cx="290" cy="50" r="5.05167" stroke-width="0.5" stroke="rgb(0,0,0)" fill="red"/>
   </g>
   <g id="cell115">
  <circle cx="290" cy="60" r="8.41271" stroke-width="0.5" stroke="rgb(0,0,0)" fill="red"/>
  <circle cx="290" cy="60" r="5.05167" stroke-width="0.5" stroke="rgb(0,0,0)" fill="red"/>
   </g>
   <g id="cell116">
  <circle cx="290" cy="70" r="8.41271" stroke-width="0.5" stroke="rgb(0,0,0)" fill="blue"/>
  <circle cx="290" cy="70" r="5.05167" stroke-width="0.5" stroke="rgb(0,0,0)" fill="blue"/>
   </g>
   <g id="cell117">
  <circle cx="290" cy="80" r="8.41271" stroke-width="0.5" stroke="rgb(0,0,0)" fill="blue"/>
  <circle cx="290" cy="80" r="5.05167" stroke-width="0.5" stroke="rgb(0,0,0)" fill="blue"/>
   </g>
   <g id="cell118">
  <circle cx="290" cy="90" r="8.41271" stroke-width="0.5" stroke="rgb(0,0,0)" fill="blue"/>
  <circle cx="290" cy="90" r="5.05167" stroke-width="0.5" stroke="rgb(0,0,0)" fill="blue"/>
   </g>
   <g id="cell119">
  <circle cx="190" cy="30" r="8.41271" stroke-width="0.5" stroke="rgb(0,0,0)" fill="blue"/>
  <circle cx="190" cy="30" r="5.05167" stroke-width="0.5" stroke="rgb(0,0,0)" fill="blue"/>
   </g>
   <g id="cell120">
  <circle cx="180" cy="30" r="8.41271" stroke-width="0.5" stroke="rgb(0,0,0)" fill="blue"/>
  <circle cx="180" cy="30" r="5.05167" stroke-width="0.5" stroke="rgb(0,0,0)" fill="blue"/>
   </g>
   <g id="cell121">
  <circle cx="300" cy="30" r="8.41271" stroke-width="0.5" stroke="rgb(0,0,0)" fill="blue"/>
  <circle cx="300" cy="30" r="5.05167" stroke-width="0.5" stroke="rgb(0,0,0)" fill="blue"/>
   </g>
   <g id="cell122">
  <circle cx="310" cy="30" r="8.41271" stroke-width="0.5" stroke="rgb(0,0,0)" fill="blue"/>
  <circle cx="310" cy="30" r="5.05167" stroke-width="0.5" stroke="rgb(0,0,0)" fill="blue"/>
   </g>
   <g id="cell123">
  <circle cx="190" cy="40" r="8.41271" stroke-width="0.5" stroke="rgb(0,0,0)" fill="blue"/>
  <circle cx="190" cy="40" r="5.05167" stroke-width="0.5" stroke="rgb(0,0,0)" fill="blue"/>
   </g>
   <g id="cell124">
  <circle cx="180" cy="40" r="8.41271" stroke-width="0.5" stroke="rgb(0,0,0)" fill="blue"/>
  <circle cx="180" cy="40" r="5.05167" stroke-width="0.5" stroke="rgb(0,0,0)" fill="blue"/>
   </g>
   <g id="cell125">
  <circle cx="300" cy="40" r="8.41271" stroke-width="0.5" stroke="rgb(0,0,0)" fill="blue"/>
  <circle cx="300" cy="40" r="5.05167" stroke-width="0.5" stroke="rgb(0,0,0)" fill="blue"/>
   </g>
   <g id="cell126">
  <circle cx="310" cy="40" r="8.41271" stroke-width="0.5" stroke="rgb(0,0,0)" fill="blue"/>
  <circle cx="310" cy="40" r="5.05167" stroke-width="0.5" stroke="rgb(0,0,0)" fill="blue"/>
   </g>
   <g id="cell127">
  <circle cx="190" cy="50" r="8.41271" stroke-width="0.5" stroke="rgb(0,0,0)" fill="blue"/>
  <circle cx="190" cy="50" r="5.05167" stroke-width="0.5" stroke="rgb(0,0,0)" fill="blue"/>
   </g>
   <g id="cell128">
  <circle cx="180" cy="50" r="8.41271" stroke-width="0.5" stroke="rgb(0,0,0)" fill="blue"/>
  <circle cx="180" cy="50" r="5.05167" stroke-width="0.5" stroke="rgb(0,0,0)" fill="blue"/>
   </g>
   <g id="cell129">
  <circle cx="300" cy="50" r="8.41271" stroke-width="0.5" stroke="rgb(0,0,0)" fill="blue"/>
  <circle cx="300" cy="50" r="5.05167" stroke-width="0.5" stroke="rgb(0,0,0)" fill="blue"/>
   </g>
   <g id="cell130">
  <circle cx="310" cy="50" r="8.41271" stroke-width="0.5" stroke="rgb(0,0,0)" fill="blue"/>
  <circle cx="310" cy="50" r="5.05167" stroke-width="0.5" stroke="rgb(0,0,0)" fill="blue"/>
   </g>
   <g id="cell131">
  <circle cx="190" cy="60" r="8.41271" stroke-width="0.5" stroke="rgb(0,0,0)" fill="blue"/>
  <circle cx="190" cy="60" r="5.05167" stroke-width="0.5" stroke="rgb(0,0,0)" fill="blue"/>
   </g>
   <g id="cell132">
  <circle cx="180" cy="60" r="8.41271" stroke-width="0.5" stroke="rgb(0,0,0)" fill="blue"/>
  <circle cx="180" cy="60" r="5.05167" stroke-width="0.5" stroke="rgb(0,0,0)" fill="blue"/>
   </g>
   <g id="cell133">
  <circle cx="300" cy="60" r="8.41271" stroke-width="0.5" stroke="rgb(0,0,0)" fill="blue"/>
  <circle cx="300" cy="60" r="5.05167" stroke-width="0.5" stroke="rgb(0,0,0)" fill="blue"/>
   </g>
   <g id="cell134">
  <circle cx="310" cy="60" r="8.41271" stroke-width="0.5" stroke="rgb(0,0,0)" fill="blue"/>
  <circle cx="310" cy="60" r="5.05167" stroke-width="0.5" stroke="rgb(0,0,0)" fill="blue"/>
   </g>
   <g id="cell135">
  <circle cx="190" cy="70" r="8.41271" stroke-width="0.5" stroke="rgb(0,0,0)" fill="blue"/>
  <circle cx="190" cy="70" r="5.05167" stroke-width="0.5" stroke="rgb(0,0,0)" fill="blue"/>
   </g>
   <g id="cell136">
  <circle cx="180" cy="70" r="8.41271" stroke-width="0.5" stroke="rgb(0,0,0)" fill="blue"/>
  <circle cx="180" cy="70" r="5.05167" stroke-width="0.5" stroke="rgb(0,0,0)" fill="blue"/>
   </g>
   <g id="cell137">
  <circle cx="300" cy="70" r="8.41271" stroke-width="0.5" stroke="rgb(0,0,0)" fill="blue"/>
  <circle cx="300" cy="70" r="5.05167" stroke-width="0.5" stroke="rgb(0,0,0)" fill="blue"/>
   </g>
   <g id="cell138">
  <circle cx="310" cy="70" r="8.41271" stroke-width="0.5" stroke="rgb(0,0,0)" fill="blue"/>
  <circle cx="310" cy="70" r="5.05167" stroke-width="0.5" stroke="rgb(0,0,0)" fill="blue"/>
   </g>
   <g id="cell139">
  <circle cx="190" cy="80" r="8.41271" stroke-width="0.5" stroke="rgb(0,0,0)" fill="blue"/>
  <circle cx="190" cy="80" r="5.05167" stroke-width="0.5" stroke="rgb(0,0,0)" fill="blue"/>
   </g>
   <g id="cell140">
  <circle cx="180" cy="80" r="8.41271" stroke-width="0.5" stroke="rgb(0,0,0)" fill="blue"/>
  <circle cx="180" cy="80" r="5.05167" stroke-width="0.5" stroke="rgb(0,0,0)" fill="blue"/>
   </g>
   <g id="cell141">
  <circle cx="300" cy="80" r="8.41271" stroke-width="0.5" stroke="rgb(0,0,0)" fill="blue"/>
  <circle cx="300" cy="80" r="5.05167" stroke-width="0.5" stroke="rgb(0,0,0)" fill="blue"/>
   </g>
   <g id="cell142">
  <circle cx="310" cy="80" r="8.41271" stroke-width="0.5" stroke="rgb(0,0,0)" fill="blue"/>
  <circle cx="310" cy="80" r="5.05167" stroke-width="0.5" stroke="rgb(0,0,0)" fill="blue"/>
   </g>
   <g id="cell143">
  <circle cx="190" cy="90" r="8.41271" stroke-width="0.5" stroke="rgb(0,0,0)" fill="blue"/>
  <circle cx="190" cy="90" r="5.05167" stroke-width="0.5" stroke="rgb(0,0,0)" fill="blue"/>
   </g>
   <g id="cell144">
  <circle cx="180" cy="90" r="8.41271" stroke-width="0.5" stroke="rgb(0,0,0)" fill="blue"/>
  <circle cx="180" cy="90" r="5.05167" stroke-width="0.5" stroke="rgb(0,0,0)" fill="blue"/>
   </g>
   <g id="cell145">
  <circle cx="300" cy="90" r="8.41271" stroke-width="0.5" stroke="rgb(0,0,0)" fill="blue"/>
  <circle cx="300" cy="90" r="5.05167" stroke-width="0.5" stroke="rgb(0,0,0)" fill="blue"/>
   </g>
   <g id="cell146">
  <circle cx="310" cy="90" r="8.41271" stroke-width="0.5" stroke="rgb(0,0,0)" fill="blue"/>
  <circle cx="310" cy="90" r="5.05167" stroke-width="0.5" stroke="rgb(0,0,0)" fill="blue"/>
   </g>
  </g>
 </g>
  <rect x="287.5" y="517.5" width="200" height="5" stroke-width="1" stroke="rgb(255,255,255)" fill="rgb(0,0,0)"/>
  <text x="290.625" y="514.375"
   font-family="Arial" font-size="12.5" fill="black" >
   200 &#956;m
  </text>
  <text x="12.5" y="522.5"
   font-family="Arial" font-size="9.375" fill="black" >
   0 days, 0 hours, 0 minutes, and 0.1335 seconds
  </text>
  <rect x="0" y="35" width="500" height="500" stroke-width="1" stroke="rgb(0,0,0)" fill="none"/>
</svg>
