<?xml version="1.0" encoding="UTF-8" standalone="no"?>
<!-- Created with PhysiCell (http://PhysiCell.MathCancer.org/) -->
<svg 
 xmlns:dc="http://purl.org/dc/elements/1.1/" 
 xmlns:cc="http://creativecommons.org/ns#" 
 xmlns:rdf="http://www.w3.org/1999/02/22-rdf-syntax-ns#" 
 xmlns:svg="http://www.w3.org/2000/svg" 
 xmlns="http://www.w3.org/2000/svg" 
 version="1.1" 
 width="500" 
 height="535" 
 id="svg2">
  <rect x="0" y="0" width="500" height="535" stroke-width="1" stroke="white" fill="white"/>
  <text x="6.25" y="15"
   font-family="Arial" font-size="12.5" fill="black" >
   Current time: 0 days, 0 hours, and 0.00 minutes, z = 0.00 &#956;m
  </text>
  <text x="6.25" y="28.75"
   font-family="Arial" font-size="11.875" fill="black" >
   45 agents
  </text>
 <g id="tissue" 
    transform="translate(0,535) scale(1,-1)">
  <g id="ECM">
  </g>
  <g id="cells">
   <g id="cell0">
  <circle cx="10" cy="20" r="10" stroke-width="0.5" stroke="rgb(0,0,0)" fill="black"/>
  <circle cx="10" cy="20" r="6.3" stroke-width="0.5" stroke="rgb(0,0,0)" fill="black"/>
   </g>
   <g id="cell1">
  <circle cx="30" cy="20" r="10" stroke-width="0.5" stroke="rgb(0,0,0)" fill="black"/>
  <circle cx="30" cy="20" r="6.3" stroke-width="0.5" stroke="rgb(0,0,0)" fill="black"/>
   </g>
   <g id="cell2">
  <circle cx="50" cy="20" r="10" stroke-width="0.5" stroke="rgb(0,0,0)" fill="black"/>
  <circle cx="50" cy="20" r="6.3" stroke-width="0.5" stroke="rgb(0,0,0)" fill="black"/>
   </g>
   <g id="cell3">
  <circle cx="70" cy="20" r="10" stroke-width="0.5" stroke="rgb(0,0,0)" fill="black"/>
  <circle cx="70" cy="20" r="6.3" stroke-width="0.5" stroke="rgb(0,0,0)" fill="black"/>
   </g>
   <g id="cell4">
  <circle cx="90" cy="20" r="10" stroke-width="0.5" stroke="rgb(0,0,0)" fill="black"/>
  <circle cx="90" cy="20" r="6.3" stroke-width="0.5" stroke="rgb(0,0,0)" fill="black"/>
   </g>
   <g id="cell5">
  <circle cx="110" cy="20" r="10" stroke-width="0.5" stroke="rgb(0,0,0)" fill="black"/>
  <circle cx="110" cy="20" r="6.3" stroke-width="0.5" stroke="rgb(0,0,0)" fill="black"/>
   </g>
   <g id="cell6">
  <circle cx="130" cy="20" r="10" stroke-width="0.5" stroke="rgb(0,0,0)" fill="black"/>
  <circle cx="130" cy="20" r="6.3" stroke-width="0.5" stroke="rgb(0,0,0)" fill="black"/>
   </g>
   <g id="cell7">
  <circle cx="150" cy="20" r="10" stroke-width="0.5" stroke="rgb(0,0,0)" fill="black"/>
  <circle cx="150" cy="20" r="6.3" stroke-width="0.5" stroke="rgb(0,0,0)" fill="black"/>
   </g>
   <g id="cell8">
  <circle cx="170" cy="20" r="10" stroke-width="0.5" stroke="rgb(0,0,0)" fill="black"/>
  <circle cx="170" cy="20" r="6.3" stroke-width="0.5" stroke="rgb(0,0,0)" fill="black"/>
   </g>
   <g id="cell9">
  <circle cx="190" cy="20" r="10" stroke-width="0.5" stroke="rgb(0,0,0)" fill="black"/>
  <circle cx="190" cy="20" r="6.3" stroke-width="0.5" stroke="rgb(0,0,0)" fill="black"/>
   </g>
   <g id="cell10">
  <circle cx="210" cy="20" r="10" stroke-width="0.5" stroke="rgb(0,0,0)" fill="black"/>
  <circle cx="210" cy="20" r="6.3" stroke-width="0.5" stroke="rgb(0,0,0)" fill="black"/>
   </g>
   <g id="cell11">
  <circle cx="230" cy="20" r="10" stroke-width="0.5" stroke="rgb(0,0,0)" fill="black"/>
  <circle cx="230" cy="20" r="6.3" stroke-width="0.5" stroke="rgb(0,0,0)" fill="black"/>
   </g>
   <g id="cell12">
  <circle cx="250" cy="20" r="10" stroke-width="0.5" stroke="rgb(0,0,0)" fill="black"/>
  <circle cx="250" cy="20" r="6.3" stroke-width="0.5" stroke="rgb(0,0,0)" fill="black"/>
   </g>
   <g id="cell13">
  <circle cx="270" cy="20" r="10" stroke-width="0.5" stroke="rgb(0,0,0)" fill="black"/>
  <circle cx="270" cy="20" r="6.3" stroke-width="0.5" stroke="rgb(0,0,0)" fill="black"/>
   </g>
   <g id="cell14">
  <circle cx="290" cy="20" r="10" stroke-width="0.5" stroke="rgb(0,0,0)" fill="black"/>
  <circle cx="290" cy="20" r="6.3" stroke-width="0.5" stroke="rgb(0,0,0)" fill="black"/>
   </g>
   <g id="cell15">
  <circle cx="310" cy="20" r="10" stroke-width="0.5" stroke="rgb(0,0,0)" fill="black"/>
  <circle cx="310" cy="20" r="6.3" stroke-width="0.5" stroke="rgb(0,0,0)" fill="black"/>
   </g>
   <g id="cell16">
  <circle cx="330" cy="20" r="10" stroke-width="0.5" stroke="rgb(0,0,0)" fill="black"/>
  <circle cx="330" cy="20" r="6.3" stroke-width="0.5" stroke="rgb(0,0,0)" fill="black"/>
   </g>
   <g id="cell17">
  <circle cx="350" cy="20" r="10" stroke-width="0.5" stroke="rgb(0,0,0)" fill="black"/>
  <circle cx="350" cy="20" r="6.3" stroke-width="0.5" stroke="rgb(0,0,0)" fill="black"/>
   </g>
   <g id="cell18">
  <circle cx="370" cy="20" r="10" stroke-width="0.5" stroke="rgb(0,0,0)" fill="black"/>
  <circle cx="370" cy="20" r="6.3" stroke-width="0.5" stroke="rgb(0,0,0)" fill="black"/>
   </g>
   <g id="cell19">
  <circle cx="390" cy="20" r="10" stroke-width="0.5" stroke="rgb(0,0,0)" fill="black"/>
  <circle cx="390" cy="20" r="6.3" stroke-width="0.5" stroke="rgb(0,0,0)" fill="black"/>
   </g>
   <g id="cell20">
  <circle cx="410" cy="20" r="10" stroke-width="0.5" stroke="rgb(0,0,0)" fill="black"/>
  <circle cx="410" cy="20" r="6.3" stroke-width="0.5" stroke="rgb(0,0,0)" fill="black"/>
   </g>
   <g id="cell21">
  <circle cx="430" cy="20" r="10" stroke-width="0.5" stroke="rgb(0,0,0)" fill="black"/>
  <circle cx="430" cy="20" r="6.3" stroke-width="0.5" stroke="rgb(0,0,0)" fill="black"/>
   </g>
   <g id="cell22">
  <circle cx="450" cy="20" r="10" stroke-width="0.5" stroke="rgb(0,0,0)" fill="black"/>
  <circle cx="450" cy="20" r="6.3" stroke-width="0.5" stroke="rgb(0,0,0)" fill="black"/>
   </g>
   <g id="cell23">
  <circle cx="470" cy="20" r="10" stroke-width="0.5" stroke="rgb(0,0,0)" fill="black"/>
  <circle cx="470" cy="20" r="6.3" stroke-width="0.5" stroke="rgb(0,0,0)" fill="black"/>
   </g>
   <g id="cell24">
  <circle cx="490" cy="20" r="10" stroke-width="0.5" stroke="rgb(0,0,0)" fill="black"/>
  <circle cx="490" cy="20" r="6.3" stroke-width="0.5" stroke="rgb(0,0,0)" fill="black"/>
   </g>
   <g id="cell25">
  <circle cx="150" cy="30" r="2.88" stroke-width="0.5" stroke="rgb(0,0,0)" fill="rgb(0,0,0)"/>
   </g>
   <g id="cell26">
  <circle cx="170" cy="30" r="2.88" stroke-width="0.5" stroke="rgb(0,0,0)" fill="rgb(0,0,0)"/>
   </g>
   <g id="cell27">
  <circle cx="190" cy="30" r="2.88" stroke-width="0.5" stroke="rgb(0,0,0)" fill="rgb(0,0,0)"/>
   </g>
   <g id="cell28">
  <circle cx="210" cy="30" r="2.88" stroke-width="0.5" stroke="rgb(0,0,0)" fill="rgb(0,0,0)"/>
   </g>
   <g id="cell29">
  <circle cx="230" cy="30" r="2.88" stroke-width="0.5" stroke="rgb(0,0,0)" fill="rgb(0,0,0)"/>
   </g>
   <g id="cell30">
  <circle cx="250" cy="30" r="2.88" stroke-width="0.5" stroke="rgb(0,0,0)" fill="rgb(0,0,0)"/>
   </g>
   <g id="cell31">
  <circle cx="270" cy="30" r="2.88" stroke-width="0.5" stroke="rgb(0,0,0)" fill="rgb(0,0,0)"/>
   </g>
   <g id="cell32">
  <circle cx="290" cy="30" r="2.88" stroke-width="0.5" stroke="rgb(0,0,0)" fill="rgb(0,0,0)"/>
   </g>
   <g id="cell33">
  <circle cx="310" cy="30" r="2.88" stroke-width="0.5" stroke="rgb(0,0,0)" fill="rgb(0,0,0)"/>
   </g>
   <g id="cell34">
  <circle cx="330" cy="30" r="2.88" stroke-width="0.5" stroke="rgb(0,0,0)" fill="rgb(0,0,0)"/>
   </g>
   <g id="cell35">
  <circle cx="150" cy="40" r="2.88" stroke-width="0.5" stroke="rgb(0,0,0)" fill="red"/>
   </g>
   <g id="cell36">
  <circle cx="170" cy="40" r="2.88" stroke-width="0.5" stroke="rgb(0,0,0)" fill="red"/>
   </g>
   <g id="cell37">
  <circle cx="190" cy="40" r="2.88" stroke-width="0.5" stroke="rgb(0,0,0)" fill="red"/>
   </g>
   <g id="cell38">
  <circle cx="210" cy="40" r="2.88" stroke-width="0.5" stroke="rgb(0,0,0)" fill="red"/>
   </g>
   <g id="cell39">
  <circle cx="230" cy="40" r="2.88" stroke-width="0.5" stroke="rgb(0,0,0)" fill="red"/>
   </g>
   <g id="cell40">
  <circle cx="250" cy="40" r="2.88" stroke-width="0.5" stroke="rgb(0,0,0)" fill="red"/>
   </g>
   <g id="cell41">
  <circle cx="270" cy="40" r="2.88" stroke-width="0.5" stroke="rgb(0,0,0)" fill="red"/>
   </g>
   <g id="cell42">
  <circle cx="290" cy="40" r="2.88" stroke-width="0.5" stroke="rgb(0,0,0)" fill="red"/>
   </g>
   <g id="cell43">
  <circle cx="310" cy="40" r="2.88" stroke-width="0.5" stroke="rgb(0,0,0)" fill="red"/>
   </g>
   <g id="cell44">
  <circle cx="330" cy="40" r="2.88" stroke-width="0.5" stroke="rgb(0,0,0)" fill="red"/>
   </g>
  </g>
 </g>
  <rect x="287.5" y="517.5" width="200" height="5" stroke-width="1" stroke="rgb(255,255,255)" fill="rgb(0,0,0)"/>
  <text x="290.625" y="514.375"
   font-family="Arial" font-size="12.5" fill="black" >
   200 &#956;m
  </text>
  <text x="12.5" y="522.5"
   font-family="Arial" font-size="9.375" fill="black" >
   0 days, 0 hours, 0 minutes, and 0.1897 seconds
  </text>
  <rect x="0" y="35" width="500" height="500" stroke-width="1" stroke="rgb(0,0,0)" fill="none"/>
</svg>
